<svg xmlns="http://www.w3.org/2000/svg" version="1.1" xmlns:xlink="http://www.w3.org/1999/xlink" xmlns:svgjs="http://svgjs.dev/svgjs" width="1000" height="939" viewBox="0 0 1000 939"><g transform="matrix(1,0,0,1,-0.4713846913687689,0.3808639578907673)"><svg viewBox="0 0 263 247" data-background-color="#471aa0" preserveAspectRatio="xMidYMid meet" height="939" width="1000" xmlns="http://www.w3.org/2000/svg" xmlns:xlink="http://www.w3.org/1999/xlink"><g id="tight-bounds" transform="matrix(1,0,0,1,0.12397417382999265,-0.09997365579206985)"><svg viewBox="0 0 262.75205165234 247.2" height="247.2" width="262.75205165234"><g><svg viewBox="0 0 262.75205165234 247.2" height="247.2" width="262.75205165234"><g><svg viewBox="0 0 262.75205165234 247.2" height="247.2" width="262.75205165234"><g id="textblocktransform"><svg viewBox="0 0 262.75205165234 247.2" height="247.2" width="262.75205165234" id="textblock"><g><svg viewBox="0 0 262.75205165234 247.2" height="247.2" width="262.75205165234"><path d="M262.137 53.02C260.902 27.36 257.381 20.227 257.381 20.227 246.573-6.202 233.084-0.506 220.966 3.292 199.571 3.446 178.263 9.091 156.918 12.119 112.115 12.581 66.93 4.986 22.349 23.717 18.162 29.464-4.344 24.846 0.745 56.304 2.079 69.39 6.946 83.913 6.798 95.922 7.465 98.026 8.391 93.202 8.786 96.23 10.17 104.39 12.43 100.541 14.283 105.365 11.702 118.246 13.554 128.971 15.321 140.21 12.208 143.135 8.218 141.749 6.427 151.449 6.242 158.479 5.241 157.145 4.142 156.837 3.339 156.632 1.721 157.402 1.992 159.608 2.919 167.152-1.059 171.514 1.437 178.904-0.28 186.91 2.622 193.838 2.227 202.511 2.178 204.255 2.45 205.744 2.882 206.154 4.796 208.361 2.005 212.672 2.301 217.342 21.942 249.262 43.25 227.195 63.372 241.872 68.597 231.608 64.669 245.516 66.757 243.36 68.387 240.846 69.573 251.263 71.414 245.362 71.698 243.668 71.265 239.665 72.278 240.435 72.81 240.846 73.279 240.743 73.353 238.382 73.464 234.841 72.488 237.048 72.229 235.201 75.033 225.861 74.341 248.081 76.972 247.158 76.849 244.438 76.083 240.538 77.652 241.051 79.208 237.151 79.258 233.918 80.641 242.693 80.69 244.592 80.938 245.926 81.333 246.85 85.656 237.305 89.955 250.237 94.488 245.926 97.268 241.205 99.936 248.492 102.752 246.696 103.74 245.259 104.741 242.693 105.692 247.004 117.34 247.928 129.755 244.079 140.798 247.158 170.308 241.41 201.844 249.518 232.96 241.923 240.298 238.998 247.919 234.841 255.071 231.506 255.071 231.506 260.865 222.371 260.865 181.316S262.1 145.393 262.285 112.703C262.47 80.013 263.335 78.679 262.1 53.02Z" opacity="1" fill="#ffffff" data-fill-palette-color="tertiary"></path><g transform="matrix(1,0,0,1,55.76831999999999,26.230666666666668)"><svg width="151.21541165234004" viewBox="4.300000190734863 -34.900001525878906 27.099998474121094 34.900001525878906" height="194.73866666666666" data-palette-color="#471aa0"><path d="M25.1 0L13.7-19.3 9.85-26.7 9.7-26.7 9.7 0 4.3 0 4.3-34.9 10.6-34.9 22-15.6 25.85-8.2 26-8.2 26-34.9 31.4-34.9 31.4 0 25.1 0Z" opacity="1" transform="matrix(1,0,0,1,0,0)" fill="#471aa0" class="wordmark-text-0" data-fill-palette-color="quaternary" id="text-0"></path></svg></g></svg></g></svg></g></svg></g><g></g></svg></g><defs></defs></svg><rect width="262.75205165234" height="247.2" fill="none" stroke="none" visibility="hidden"></rect></g></svg></g></svg>